<?xml version="1.0" standalone="no"?>
<!DOCTYPE svg PUBLIC "-//W3C//DTD SVG 20010904//EN"
 "http://www.w3.org/TR/2001/REC-SVG-20010904/DTD/svg10.dtd">
<svg version="1.0" xmlns="http://www.w3.org/2000/svg"
 width="558.000000pt" height="193.000000pt" viewBox="0 0 558.000000 193.000000"
 preserveAspectRatio="xMidYMid meet">

<g transform="translate(0.000000,193.000000) scale(0.100000,-0.100000)"
fill="#000000" stroke="none">
<path d="M20 1690 c11 -20 720 -1136 744 -1172 10 -14 17 -9 48 40 l35 57
-346 545 -347 545 -72 3 c-72 3 -73 2 -62 -18z"/>
<path d="M353 1698 c6 -16 575 -910 586 -921 8 -8 71 84 71 104 0 5 -118 194
-261 419 l-261 410 -70 0 c-52 0 -69 -3 -65 -12z"/>
<path d="M692 1701 c2 -4 97 -157 213 -339 l210 -330 38 59 37 59 -177 280
-178 280 -73 0 c-41 0 -72 -4 -70 -9z"/>
<path d="M1040 1701 c0 -6 5 -13 10 -16 6 -4 8 -10 5 -15 -3 -4 2 -11 11 -14
9 -4 14 -9 11 -12 -3 -4 5 -18 19 -32 22 -25 25 -31 23 -48 0 -3 8 -12 18 -20
10 -7 14 -14 10 -14 -4 0 4 -12 18 -27 14 -15 25 -31 25 -35 0 -19 2 -23 16
-31 8 -5 12 -12 9 -18 -4 -5 -2 -9 2 -9 9 0 41 -49 41 -64 0 -5 6 -13 14 -17
15 -10 34 -12 25 -3 -3 3 7 24 22 46 27 40 28 42 12 72 -9 17 -22 35 -28 39
-7 4 -13 17 -13 27 0 11 -5 20 -10 20 -6 0 -16 12 -23 28 -6 15 -16 30 -21 34
-5 3 -11 13 -12 21 -1 8 -11 24 -23 36 -12 12 -21 27 -21 35 0 8 -7 17 -16 20
-25 10 -124 7 -124 -3z"/>
<path d="M1370 1705 c0 -8 81 -130 86 -130 12 0 72 108 67 121 -4 10 -25 14
-79 14 -41 0 -74 -2 -74 -5z"/>
<path d="M1732 1388 c2 -7 42 -156 89 -330 l84 -318 45 0 45 0 85 316 c47 174
87 323 88 331 3 11 -7 13 -44 11 l-48 -3 -60 -257 c-34 -142 -63 -258 -66
-258 -3 0 -32 116 -66 258 l-60 257 -48 3 c-37 2 -47 0 -44 -10z"/>
<path d="M3750 1290 l0 -110 -32 20 c-37 23 -101 26 -138 7 -13 -7 -35 -28
-47 -46 -21 -31 -23 -45 -23 -178 0 -156 7 -183 56 -222 32 -25 120 -29 150
-6 25 19 34 19 34 0 0 -11 12 -15 45 -15 l45 0 0 330 0 330 -45 0 -45 0 0
-110z m-26 -161 c26 -20 26 -22 26 -143 0 -110 -2 -126 -21 -150 -26 -33 -73
-35 -106 -4 -22 20 -23 29 -23 149 0 126 0 128 26 148 15 12 37 21 49 21 12 0
34 -9 49 -21z"/>
<path d="M4390 1280 c0 -63 -2 -70 -20 -70 -16 0 -20 -7 -20 -35 0 -28 4 -35
20 -35 19 0 20 -7 20 -137 1 -218 16 -253 114 -261 l56 -4 0 41 c0 39 -2 41
-30 41 -19 0 -33 7 -40 19 -5 11 -10 83 -10 160 l0 141 40 0 c39 0 40 1 40 34
0 33 -2 35 -37 38 l-38 3 -3 68 -3 67 -44 0 -45 0 0 -70z"/>
<path d="M2320 1209 c-33 -13 -68 -47 -86 -81 -21 -40 -19 -259 2 -304 25 -53
68 -78 141 -82 74 -5 113 8 148 50 34 40 32 52 -13 70 -38 15 -39 15 -55 -13
-35 -61 -126 -43 -148 30 -20 69 -16 71 127 71 l127 0 -5 79 c-7 127 -53 182
-155 188 -32 1 -69 -2 -83 -8z m103 -70 c30 -14 47 -48 47 -94 l0 -35 -80 0
c-93 0 -102 8 -79 74 20 57 62 78 112 55z"/>
<path d="M2713 1204 c-56 -28 -73 -80 -73 -225 0 -143 17 -196 69 -223 38 -20
121 -21 147 -1 10 8 23 15 28 15 15 0 0 -99 -19 -120 -35 -39 -105 -28 -125
20 -12 29 -12 29 -48 14 -48 -20 -48 -19 -29 -59 22 -47 68 -69 144 -68 78 1
127 29 154 87 17 37 19 69 19 304 l0 262 -45 0 c-33 0 -45 -4 -45 -15 0 -12
-6 -12 -37 5 -45 24 -96 25 -140 4z m148 -73 c23 -18 24 -25 24 -151 0 -126
-1 -133 -24 -151 -13 -10 -36 -19 -51 -19 -15 0 -38 9 -51 19 -23 18 -24 25
-24 151 0 126 1 133 24 151 13 10 36 19 51 19 15 0 38 -9 51 -19z"/>
<path d="M3164 1206 c-33 -15 -77 -63 -71 -80 2 -5 17 -14 35 -18 26 -7 35 -4
56 17 17 17 36 25 61 25 50 0 75 -28 75 -84 l0 -44 -90 -4 c-86 -3 -91 -4
-122 -36 -31 -30 -33 -37 -33 -102 0 -65 2 -72 32 -102 29 -28 40 -33 98 -36
49 -3 71 0 90 12 22 14 25 15 25 1 0 -11 11 -15 46 -15 l45 0 -3 199 c-3 197
-3 200 -28 227 -14 14 -39 33 -57 40 -41 18 -119 17 -159 0z m156 -303 c0 -32
-4 -64 -8 -71 -13 -20 -68 -32 -104 -21 -39 11 -48 24 -48 72 0 57 26 77 100
77 l60 0 0 -57z"/>
<path d="M4045 1213 c-32 -9 -65 -34 -80 -64 -16 -31 -14 -34 32 -43 22 -5 34
-3 40 7 4 8 18 19 30 26 60 31 127 -10 121 -77 l-3 -37 -85 -5 c-47 -3 -95
-11 -107 -18 -33 -19 -53 -64 -53 -122 0 -62 20 -105 60 -125 37 -19 126 -19
163 -1 23 13 27 13 27 0 0 -10 13 -14 46 -14 l46 0 -4 188 c-4 217 -11 241
-81 273 -40 17 -108 23 -152 12z m145 -304 c0 -28 -5 -59 -10 -69 -12 -23 -67
-40 -104 -33 -56 11 -75 85 -31 128 20 21 34 25 85 25 l60 0 0 -51z"/>
<path d="M4735 1207 c-40 -19 -79 -62 -72 -80 3 -8 17 -17 32 -21 20 -5 34 -1
56 19 62 52 139 16 139 -65 l0 -40 -80 0 c-127 0 -170 -35 -170 -140 0 -64 20
-103 64 -124 44 -21 134 -21 164 0 20 14 22 14 22 0 0 -12 11 -16 45 -16 l45
0 0 183 c0 199 -7 230 -61 270 -35 25 -142 33 -184 14z m155 -305 c0 -44 -5
-63 -17 -74 -47 -40 -136 -22 -147 29 -8 36 6 78 31 92 10 6 44 11 76 11 l57
0 0 -58z"/>
</g>
</svg>
